<?xml version="1.0" standalone="no"?>
<!DOCTYPE svg PUBLIC "-//W3C//DTD SVG 20010904//EN"
 "http://www.w3.org/TR/2001/REC-SVG-20010904/DTD/svg10.dtd">
<svg version="1.0" xmlns="http://www.w3.org/2000/svg"
 width="1099.000000pt" height="1099.000000pt" viewBox="0 0 1099.000000 1099.000000"
 preserveAspectRatio="xMidYMid meet">

<g transform="translate(0.000000,1099.000000) scale(0.100000,-0.100000)"
fill="#000000" stroke="none">
<path d="M3680 10840 l0 -150 -1600 0 -1600 0 0 -1458 0 -1459 -64 -154 c-35
-85 -66 -162 -69 -171 -6 -16 -23 -18 -177 -18 l-170 0 0 -1780 0 -1780 118 0
117 0 43 -129 42 -129 0 -1651 0 -1651 1678 -2 1677 -3 3 -152 3 -153 1759 0
1760 0 0 133 0 133 68 25 67 24 1693 3 1692 2 1 1738 c0 1370 3 1744 13 1772
13 35 13 35 79 38 l67 3 0 257 c0 213 3 275 20 362 26 140 45 278 70 497 31
280 29 752 -5 1055 -13 124 -37 290 -52 369 -26 140 -27 155 -30 582 l-4 437
-117 0 -118 0 -42 103 -42 102 0 1518 0 1517 -1600 0 -1600 0 0 160 0 160
-1840 0 -1840 0 0 -150z m4030 -2448 l0 -1348 -963 -956 -964 -957 -34 21
c-48 30 -155 73 -217 87 l-52 13 2 1261 3 1262 1105 982 c608 540 1108 982
1113 982 4 1 7 -606 7 -1347z m-2550 -2371 l0 -769 -52 -13 c-68 -16 -172 -59
-226 -93 -23 -14 -45 -26 -49 -26 -5 0 -253 245 -552 544 l-543 544 68 57
c216 179 528 345 809 430 164 49 386 91 498 94 l47 1 0 -769z m2550 -456 l0
-1005 -769 0 -769 0 -12 48 c-17 70 -64 183 -99 238 l-30 49 837 838 c460 460
838 837 839 837 2 0 3 -452 3 -1005z m-3512 -260 c221 -220 402 -405 402 -412
0 -7 -16 -38 -35 -70 -19 -32 -49 -104 -67 -160 l-33 -103 -769 0 -769 0 6 89
c17 238 109 560 231 808 91 184 224 388 320 491 l30 32 141 -137 c77 -76 321
-318 543 -538z m292 -1135 c12 -45 40 -115 61 -158 l39 -77 -546 -545 -545
-545 -36 40 c-156 177 -327 484 -418 752 -61 181 -115 446 -115 567 l0 46 768
0 768 0 24 -80z m3220 34 c0 -26 -7 -94 -16 -153 -62 -420 -230 -807 -498
-1143 -33 -42 -65 -77 -71 -78 -14 0 -1085 1072 -1085 1086 0 6 15 37 34 69
19 31 50 104 68 161 l33 104 768 0 767 0 0 -46z m-2787 -563 c54 -27 128 -57
167 -67 l70 -18 0 -768 0 -768 -47 0 c-66 0 -228 25 -353 55 -333 79 -676 246
-942 458 -42 34 -77 66 -78 72 0 10 1070 1085 1081 1085 3 0 49 -22 102 -49z
m1436 -495 l545 -545 -25 -21 c-275 -235 -639 -419 -994 -504 -131 -31 -291
-56 -357 -56 l-48 0 0 768 0 768 73 18 c39 10 113 40 162 67 50 26 92 48 95
48 3 1 250 -244 549 -543z"/>
<path d="M7350 9122 c-83 -75 -308 -276 -834 -742 -71 -63 -200 -177 -285
-253 -86 -76 -236 -209 -333 -294 l-178 -156 0 -997 0 -996 51 -13 c28 -7 83
-29 121 -48 l70 -35 461 458 c254 253 593 590 754 750 l293 291 0 1062 c0 842
-3 1061 -12 1061 -7 0 -56 -40 -108 -88z"/>
</g>
</svg>
